<?xml version="1.0" encoding="UTF-8" standalone="no"?>
<!-- Created with Inkscape (http://www.inkscape.org/) -->

<svg
   xmlns:dc="http://purl.org/dc/elements/1.1/"
   xmlns:cc="http://creativecommons.org/ns#"
   xmlns:rdf="http://www.w3.org/1999/02/22-rdf-syntax-ns#"
   xmlns:svg="http://www.w3.org/2000/svg"
   xmlns="http://www.w3.org/2000/svg"
   xmlns:xlink="http://www.w3.org/1999/xlink"
   xmlns:sodipodi="http://sodipodi.sourceforge.net/DTD/sodipodi-0.dtd"
   xmlns:inkscape="http://www.inkscape.org/namespaces/inkscape"
   width="77.587463mm"
   height="77.66227mm"
   viewBox="0 0 77.587463 77.662269"
   version="1.1"
   id="svg8"
   inkscape:version="0.92.1 r15371"
   sodipodi:docname="decline.svg">
  <defs
     id="defs2" />
  <sodipodi:namedview
     id="base"
     pagecolor="#ffffff"
     bordercolor="#666666"
     borderopacity="1.0"
     inkscape:pageopacity="0.0"
     inkscape:pageshadow="2"
     inkscape:zoom="1.4142136"
     inkscape:cx="102.62809"
     inkscape:cy="123.9842"
     inkscape:document-units="mm"
     inkscape:current-layer="layer1"
     showgrid="false"
     inkscape:window-width="1920"
     inkscape:window-height="1017"
     inkscape:window-x="-8"
     inkscape:window-y="-8"
     inkscape:window-maximized="1" />
  <metadata
     id="metadata5">
    <rdf:RDF>
      <cc:Work
         rdf:about="">
        <dc:format>image/svg+xml</dc:format>
        <dc:type
           rdf:resource="http://purl.org/dc/dcmitype/StillImage" />
        <dc:title></dc:title>
      </cc:Work>
    </rdf:RDF>
  </metadata>
  <g
     inkscape:label="Ebene 1"
     inkscape:groupmode="layer"
     id="layer1"
     transform="translate(-62.641148,-112.57989)">
    <g
       id="g4496">
      <use
         x="0"
         y="0"
         xlink:href="#rect4489"
         id="use4493" />
    </g>
    <rect
       style="fill:#ffffff;fill-opacity:1;stroke-width:0.26458332"
       id="rect4483"
       width="51.850288"
       height="48.509418"
       x="76.004623"
       y="127.56745" />
    <rect
       y="127.56745"
       x="76.004623"
       height="48.509418"
       width="51.850288"
       id="rect4487"
       style="fill:#ffffff;fill-opacity:1;stroke-width:0.26458332" />
    <rect
       style="fill:#ffffff;fill-opacity:1;stroke-width:0.26458332"
       id="rect4489"
       width="51.850288"
       height="48.509418"
       x="76.004623"
       y="127.56745" />
    <use
       x="0"
       y="0"
       xlink:href="#rect4489"
       id="use4491"
       transform="matrix(1.0541237,0,0,1.033058,-6.9199809,-5.4198363)"
       width="100%"
       height="100%" />
    <path
       style="fill:#424242;stroke-width:0.17595792;fill-opacity:1"
       d="m 97.481448,190.0591 c -9.44174,-0.95062 -18.680845,-5.6563 -24.958184,-12.71175 -3.018582,-3.39276 -5.082187,-6.67691 -7.070792,-11.25288 -0.985516,-2.26778 -2.013568,-6.0229 -2.487113,-9.08457 -0.432281,-2.7949 -0.432281,-8.46641 0,-11.26131 0.473545,-3.06167 1.501597,-6.81678 2.487113,-9.08456 2.303758,-5.30117 4.751602,-8.95438 8.535021,-12.73779 3.783338,-3.78334 7.436729,-6.23131 12.73779,-8.53502 2.267779,-0.98552 6.022894,-2.01357 9.084565,-2.48711 2.794898,-0.43229 8.466412,-0.43229 11.261312,0 3.06167,0.47354 6.81678,1.50159 9.08456,2.48711 5.30117,2.30375 8.95437,4.7516 12.73779,8.53502 3.78333,3.78333 6.2313,7.43673 8.53501,12.73779 0.49772,1.1453 1.30438,3.62878 1.75054,5.38945 0.78678,3.10477 1.04955,5.43963 1.04955,9.32577 0,4.87973 -0.53117,8.22273 -1.98862,12.51574 -1.30487,3.84358 -3.31789,7.62952 -5.84918,11.0007 -1.46532,1.95153 -4.72603,5.31289 -6.58014,6.78325 -3.68871,2.92526 -8.08789,5.28421 -12.51986,6.71348 -4.91519,1.5851 -10.63281,2.18787 -15.809362,1.66668 z m 18.235112,-33.48073 c 7.79838,-0.13582 8.73022,-0.20552 9.2147,-0.68969 0.44897,-0.44867 0.55544,-1.18281 0.63734,-4.39469 0.0888,-3.48178 0.04,-3.92801 -0.50161,-4.59744 l -0.59992,-0.74137 -8.71312,-0.1511 c -28.653251,0.0117 -14.51684,0.0432 -28.653251,0.0117 -4.818847,0.0894 -8.792035,0.19146 -8.829309,0.22659 -0.03728,0.0352 -0.275198,0.46498 -0.528715,0.95524 -0.334194,0.64627 -0.460941,1.83966 -0.460941,4.34003 0,3.025 0.07648,3.54589 0.622553,4.24011 l 0.622549,0.79144 8.667702,0.0802 c 14.613692,0.28329 14.100932,0.30352 28.522022,-0.071 z"
       id="path4496"
       inkscape:connector-curvature="0"
       sodipodi:nodetypes="sccccccsccssscssccsscccccccccsscccc" />
  </g>
</svg>
