<?xml version="1.0" encoding="UTF-8" standalone="no"?>
<!-- Created with Inkscape (http://www.inkscape.org/) -->

<svg
   xmlns:dc="http://purl.org/dc/elements/1.1/"
   xmlns:cc="http://creativecommons.org/ns#"
   xmlns:rdf="http://www.w3.org/1999/02/22-rdf-syntax-ns#"
   xmlns:svg="http://www.w3.org/2000/svg"
   xmlns="http://www.w3.org/2000/svg"
   xmlns:sodipodi="http://sodipodi.sourceforge.net/DTD/sodipodi-0.dtd"
   xmlns:inkscape="http://www.inkscape.org/namespaces/inkscape"
   width="544.37915mm"
   height="57.341965mm"
   viewBox="0 0 544.37915 57.341965"
   version="1.1"
   id="svg8"
   inkscape:version="0.92.1 r15371"
   sodipodi:docname="diskussionsrunde.svg">
  <defs
     id="defs2" />
  <sodipodi:namedview
     id="base"
     pagecolor="#ffffff"
     bordercolor="#666666"
     borderopacity="1.0"
     inkscape:pageopacity="0.0"
     inkscape:pageshadow="2"
     inkscape:zoom="0.175"
     inkscape:cx="2404.6983"
     inkscape:cy="-192.32475"
     inkscape:document-units="mm"
     inkscape:current-layer="layer1"
     showgrid="false"
     inkscape:window-width="1920"
     inkscape:window-height="1017"
     inkscape:window-x="-8"
     inkscape:window-y="-8"
     inkscape:window-maximized="1" />
  <metadata
     id="metadata5">
    <rdf:RDF>
      <cc:Work
         rdf:about="">
        <dc:format>image/svg+xml</dc:format>
        <dc:type
           rdf:resource="http://purl.org/dc/dcmitype/StillImage" />
        <dc:title />
      </cc:Work>
    </rdf:RDF>
  </metadata>
  <g
     inkscape:label="Ebene 1"
     inkscape:groupmode="layer"
     id="layer1"
     transform="translate(36.550372,-104.16886)">
    <g
       aria-label="Diskussionsrunde.org"
       style="font-style:normal;font-weight:normal;font-size:33.10163498px;line-height:1.25;font-family:sans-serif;letter-spacing:0px;word-spacing:0px;fill:#ffffff;fill-opacity:1;stroke:none;stroke-width:0.82754087"
       id="text4487"
       transform="matrix(1.9032984,0,0,1.9032984,33.015893,-145.89248)">
      <path
         d="m -36.550372,154.36681 v -0.59803 h 0.824308 q 1.390011,0 1.971875,-0.88896 0.355584,-0.53338 0.355584,-2.39211 V 136.329 q 0,-2.05269 -0.452561,-2.5699 -0.630354,-0.71117 -1.874898,-0.71117 h -0.824308 v -0.59803 h 8.921925 q 4.913524,0 7.467264,1.11524 2.569902,1.11524 4.121541,3.71747 1.567802,2.60223 1.567802,6.0126 0,4.57411 -2.78002,7.64506 -3.119441,3.42654 -9.50379,3.42654 z m 6.255045,-1.58397 q 2.05269,0.45256 3.4427,0.45256 3.749794,0 6.222719,-2.63455 2.472925,-2.63456 2.472925,-7.14401 0,-4.54177 -2.472925,-7.16016 -2.472925,-2.6184 -6.352022,-2.6184 -1.454662,0 -3.313397,0.46873 z"
         style="font-style:normal;font-variant:normal;font-weight:normal;font-stretch:normal;font-family:'Times New Roman';-inkscape-font-specification:'Times New Roman, ';fill:#ffffff;fill-opacity:1;stroke-width:0.82754087"
         id="path4489"
         inkscape:connector-curvature="0" />
      <path
         d="m -8.3945875,131.38315 q 0.6788421,0 1.1475665,0.48489 0.4848872,0.46872 0.4848872,1.14756 0,0.67885 -0.4848872,1.16373 -0.4687244,0.48489 -1.1475665,0.48489 -0.6788421,0 -1.1637294,-0.48489 -0.4848871,-0.48488 -0.4848871,-1.16373 0,-0.67884 0.4687242,-1.14756 0.4848873,-0.48489 1.1798923,-0.48489 z m 1.3415213,7.74203 v 11.8959 q 0,1.39001 0.1939549,1.85874 0.2101178,0.45256 0.5980276,0.67884 0.4040727,0.22628 1.4546617,0.22628 v 0.58187 h -7.192494 v -0.58187 q 1.082915,0 1.454662,-0.21012 0.371747,-0.21011 0.5818645,-0.695 0.2262807,-0.48489 0.2262807,-1.85874 v -5.7055 q 0,-2.40828 -0.1454662,-3.11944 -0.1131404,-0.51722 -0.355584,-0.71117 -0.242444,-0.21012 -0.662679,-0.21012 -0.452562,0 -1.099078,0.24244 l -0.226281,-0.58186 4.4609629,-1.81025 z"
         style="font-style:normal;font-variant:normal;font-weight:normal;font-stretch:normal;font-family:'Times New Roman';-inkscape-font-specification:'Times New Roman, ';fill:#ffffff;fill-opacity:1;stroke-width:0.82754087"
         id="path4491"
         inkscape:connector-curvature="0" />
      <path
         d="m 6.5884288,139.12518 v 5.04283 H 6.0550529 q -0.6141905,-2.37595 -1.583965,-3.23258 -0.9536115,-0.85663 -2.440599,-0.85663 -1.13140359,0 -1.82640862,0.59802 -0.69500503,0.59803 -0.69500503,1.32536 0,0.90512 0.51721305,1.55164 0.50105014,0.66268 2.0365264,1.40617 l 2.3597845,1.14757 q 3.2810703,1.60013 3.2810703,4.21852 0,2.02036 -1.5354763,3.26491 -1.5193133,1.22838 -3.4103735,1.22838 -1.3576842,0 -3.10327828,-0.48489 -0.53337595,-0.16163 -0.87279702,-0.16163 -0.3717469,0 -0.5818647,0.42024 h -0.5333759 v -5.28527 h 0.5333759 q 0.4525614,2.2628 1.72943115,3.41037 1.27686975,1.14757 2.86083465,1.14757 1.1152406,0 1.8102457,-0.64652 0.7111679,-0.66268 0.7111679,-1.58397 0,-1.11524 -0.7919825,-1.87489 -0.7758195,-0.75966 -3.1194411,-1.92339 -2.34362167,-1.16373 -3.0709525,-2.10118 -0.7273309,-0.92128 -0.7273309,-2.32746 0,-1.8264 1.2445439,-3.05478 1.26070684,-1.22839 3.2487445,-1.22839 0.872797,0 2.1173409,0.37175 0.8243083,0.24244 1.0990777,0.24244 0.2586065,0 0.4040727,-0.11314 0.1454662,-0.11314 0.3394211,-0.50105 z"
         style="font-style:normal;font-variant:normal;font-weight:normal;font-stretch:normal;font-family:'Times New Roman';-inkscape-font-specification:'Times New Roman, ';fill:#ffffff;fill-opacity:1;stroke-width:0.82754087"
         id="path4493"
         inkscape:connector-curvature="0" />
      <path
         d="m 14.265809,131.38315 v 14.72441 l 3.765957,-3.42654 q 1.196055,-1.09907 1.39001,-1.39001 0.129303,-0.19395 0.129303,-0.38791 0,-0.32325 -0.274769,-0.54953 -0.258607,-0.24245 -0.872797,-0.27477 v -0.51722 h 6.432837 v 0.51722 q -1.325358,0.0323 -2.214318,0.40407 -0.872797,0.37175 -1.923386,1.32536 l -3.798284,3.50735 3.798284,4.80038 q 1.583965,1.98804 2.133504,2.52141 0.775819,0.75966 1.357684,0.98594 0.404073,0.16163 1.406173,0.16163 v 0.58187 h -7.192494 v -0.58187 q 0.61419,-0.0162 0.824308,-0.17779 0.226281,-0.17779 0.226281,-0.48489 0,-0.37174 -0.646516,-1.19605 l -4.541777,-5.80249 v 4.91353 q 0,1.4385 0.193954,1.89106 0.210118,0.45256 0.581865,0.64651 0.371747,0.19396 1.616291,0.21012 v 0.58187 H 9.1260039 v -0.58187 q 1.1314031,0 1.6971051,-0.27477 0.339421,-0.17779 0.517213,-0.54954 0.242444,-0.53337 0.242444,-1.84257 V 137.6382 q 0,-2.56991 -0.113141,-3.13561 -0.11314,-0.58186 -0.371746,-0.79198 -0.258607,-0.22628 -0.678843,-0.22628 -0.339421,0 -1.0182627,0.27477 l -0.2747694,-0.5657 4.3963111,-1.81025 z"
         style="font-style:normal;font-variant:normal;font-weight:normal;font-stretch:normal;font-family:'Times New Roman';-inkscape-font-specification:'Times New Roman, ';fill:#ffffff;fill-opacity:1;stroke-width:0.82754087"
         id="path4495"
         inkscape:connector-curvature="0" />
      <path
         d="m 39.415295,139.56158 v 8.97042 q 0,2.5699 0.11314,3.15176 0.129303,0.56571 0.38791,0.79199 0.274769,0.22628 0.630353,0.22628 0.50105,0 1.131404,-0.27477 l 0.226281,0.5657 -4.428637,1.82641 h -0.727331 v -3.13561 q -1.907223,2.06886 -2.909323,2.60223 -1.002101,0.53338 -2.117341,0.53338 -1.244544,0 -2.16583,-0.71117 -0.905123,-0.72733 -1.260707,-1.85873 -0.355584,-1.13141 -0.355584,-3.20026 v -6.61063 q 0,-1.05059 -0.22628,-1.45466 -0.226281,-0.40407 -0.678842,-0.61419 -0.436399,-0.22628 -1.600128,-0.21012 v -0.59803 h 5.188293 v 9.90786 q 0,2.06886 0.711168,2.71537 0.727331,0.64652 1.745594,0.64652 0.695005,0 1.567802,-0.4364 0.88896,-0.4364 2.101178,-1.66478 v -8.38855 q 0,-1.2607 -0.468724,-1.6971 -0.452562,-0.45256 -1.907223,-0.48489 v -0.59803 z"
         style="font-style:normal;font-variant:normal;font-weight:normal;font-stretch:normal;font-family:'Times New Roman';-inkscape-font-specification:'Times New Roman, ';fill:#ffffff;fill-opacity:1;stroke-width:0.82754087"
         id="path4497"
         inkscape:connector-curvature="0" />
      <path
         d="m 52.555741,139.12518 v 5.04283 h -0.533376 q -0.614191,-2.37595 -1.583965,-3.23258 -0.953612,-0.85663 -2.440599,-0.85663 -1.131404,0 -1.826409,0.59802 -0.695005,0.59803 -0.695005,1.32536 0,0.90512 0.517213,1.55164 0.50105,0.66268 2.036527,1.40617 l 2.359784,1.14757 q 3.28107,1.60013 3.28107,4.21852 0,2.02036 -1.535476,3.26491 -1.519313,1.22838 -3.410373,1.22838 -1.357685,0 -3.103279,-0.48489 -0.533376,-0.16163 -0.872797,-0.16163 -0.371747,0 -0.581864,0.42024 h -0.533376 v -5.28527 h 0.533376 q 0.452561,2.2628 1.729431,3.41037 1.276869,1.14757 2.860834,1.14757 1.115241,0 1.810246,-0.64652 0.711168,-0.66268 0.711168,-1.58397 0,-1.11524 -0.791983,-1.87489 -0.775819,-0.75966 -3.119441,-1.92339 -2.343621,-1.16373 -3.070952,-2.10118 -0.727331,-0.92128 -0.727331,-2.32746 0,-1.8264 1.244544,-3.05478 1.260707,-1.22839 3.248744,-1.22839 0.872797,0 2.117341,0.37175 0.824309,0.24244 1.099078,0.24244 0.258606,0 0.404073,-0.11314 0.145466,-0.11314 0.339421,-0.50105 z"
         style="font-style:normal;font-variant:normal;font-weight:normal;font-stretch:normal;font-family:'Times New Roman';-inkscape-font-specification:'Times New Roman, ';fill:#ffffff;fill-opacity:1;stroke-width:0.82754087"
         id="path4499"
         inkscape:connector-curvature="0" />
      <path
         d="m 65.42141,139.12518 v 5.04283 h -0.533376 q -0.614191,-2.37595 -1.583965,-3.23258 -0.953612,-0.85663 -2.440599,-0.85663 -1.131404,0 -1.826409,0.59802 -0.695005,0.59803 -0.695005,1.32536 0,0.90512 0.517213,1.55164 0.501051,0.66268 2.036527,1.40617 l 2.359784,1.14757 q 3.281071,1.60013 3.281071,4.21852 0,2.02036 -1.535477,3.26491 -1.519313,1.22838 -3.410373,1.22838 -1.357684,0 -3.103278,-0.48489 -0.533376,-0.16163 -0.872797,-0.16163 -0.371747,0 -0.581865,0.42024 h -0.533376 v -5.28527 h 0.533376 q 0.452561,2.2628 1.729431,3.41037 1.27687,1.14757 2.860835,1.14757 1.11524,0 1.810245,-0.64652 0.711168,-0.66268 0.711168,-1.58397 0,-1.11524 -0.791982,-1.87489 -0.77582,-0.75966 -3.119441,-1.92339 -2.343622,-1.16373 -3.070953,-2.10118 -0.727331,-0.92128 -0.727331,-2.32746 0,-1.8264 1.244544,-3.05478 1.260707,-1.22839 3.248745,-1.22839 0.872797,0 2.117341,0.37175 0.824308,0.24244 1.099077,0.24244 0.258607,0 0.404073,-0.11314 0.145466,-0.11314 0.339421,-0.50105 z"
         style="font-style:normal;font-variant:normal;font-weight:normal;font-stretch:normal;font-family:'Times New Roman';-inkscape-font-specification:'Times New Roman, ';fill:#ffffff;fill-opacity:1;stroke-width:0.82754087"
         id="path4501"
         inkscape:connector-curvature="0" />
      <path
         d="m 72.484603,131.38315 q 0.678842,0 1.147566,0.48489 0.484888,0.46872 0.484888,1.14756 0,0.67885 -0.484888,1.16373 -0.468724,0.48489 -1.147566,0.48489 -0.678842,0 -1.163729,-0.48489 -0.484888,-0.48488 -0.484888,-1.16373 0,-0.67884 0.468725,-1.14756 0.484887,-0.48489 1.179892,-0.48489 z m 1.341521,7.74203 v 11.8959 q 0,1.39001 0.193955,1.85874 0.210118,0.45256 0.598028,0.67884 0.404072,0.22628 1.454661,0.22628 v 0.58187 h -7.192493 v -0.58187 q 1.082914,0 1.454661,-0.21012 0.371747,-0.21011 0.581865,-0.695 0.226281,-0.48489 0.226281,-1.85874 v -5.7055 q 0,-2.40828 -0.145467,-3.11944 -0.11314,-0.51722 -0.355584,-0.71117 -0.242443,-0.21012 -0.662679,-0.21012 -0.452561,0 -1.099077,0.24244 l -0.226281,-0.58186 4.460962,-1.81025 z"
         style="font-style:normal;font-variant:normal;font-weight:normal;font-stretch:normal;font-family:'Times New Roman';-inkscape-font-specification:'Times New Roman, ';fill:#ffffff;fill-opacity:1;stroke-width:0.82754087"
         id="path4503"
         inkscape:connector-curvature="0" />
      <path
         d="m 85.140162,139.12518 q 3.361885,0 5.398412,2.55374 1.729431,2.182 1.729431,5.0105 0,1.98804 -0.953612,4.02457 -0.953611,2.03653 -2.634554,3.07095 -1.664779,1.03443 -3.717469,1.03443 -3.345721,0 -5.317596,-2.66688 -1.66478,-2.24665 -1.66478,-5.04283 0,-2.03653 1.002101,-4.04073 1.018263,-2.02036 2.666879,-2.97397 1.648617,-0.96978 3.491188,-0.96978 z m -0.50105,1.05059 q -0.856634,0 -1.729431,0.51722 -0.856634,0.50105 -1.39001,1.77792 -0.533376,1.27687 -0.533376,3.28107 0,3.23258 1.27687,5.5762 1.293033,2.34362 3.394211,2.34362 1.567802,0 2.586065,-1.29303 1.018263,-1.29303 1.018263,-4.4448 0,-3.94375 -1.697105,-6.20656 -1.147567,-1.55164 -2.925487,-1.55164 z"
         style="font-style:normal;font-variant:normal;font-weight:normal;font-stretch:normal;font-family:'Times New Roman';-inkscape-font-specification:'Times New Roman, ';fill:#ffffff;fill-opacity:1;stroke-width:0.82754087"
         id="path4505"
         inkscape:connector-curvature="0" />
      <path
         d="m 98.765496,142.26079 q 2.602224,-3.13561 4.962014,-3.13561 1.21222,0 2.08501,0.61419 0.8728,0.59803 1.39001,1.98804 0.35559,0.96978 0.35559,2.97398 v 6.31969 q 0,1.40618 0.22628,1.90723 0.17779,0.40407 0.5657,0.63035 0.40407,0.22628 1.47082,0.22628 v 0.58187 h -7.32179 v -0.58187 h 0.30709 q 1.03443,0 1.4385,-0.30709 0.42024,-0.32326 0.58187,-0.93745 0.0647,-0.24245 0.0647,-1.51932 v -6.06109 q 0,-2.02036 -0.53338,-2.92548 -0.51721,-0.92129 -1.76176,-0.92129 -1.92338,0 -3.830604,2.10118 v 7.80668 q 0,1.50315 0.177792,1.85874 0.22628,0.46872 0.61419,0.695 0.404073,0.21012 1.616292,0.21012 v 0.58187 h -7.321798 v -0.58187 h 0.323258 q 1.131403,0 1.519313,-0.5657 0.404073,-0.58187 0.404073,-2.19816 v -5.49538 q 0,-2.66688 -0.129303,-3.24875 -0.113141,-0.58186 -0.371747,-0.79198 -0.242444,-0.21012 -0.66268,-0.21012 -0.452561,0 -1.082914,0.24244 l -0.242444,-0.58186 4.460963,-1.81025 h 0.695005 z"
         style="font-style:normal;font-variant:normal;font-weight:normal;font-stretch:normal;font-family:'Times New Roman';-inkscape-font-specification:'Times New Roman, ';fill:#ffffff;fill-opacity:1;stroke-width:0.82754087"
         id="path4507"
         inkscape:connector-curvature="0" />
      <path
         d="m 120.56925,139.12518 v 5.04283 h -0.53337 q -0.61419,-2.37595 -1.58397,-3.23258 -0.95361,-0.85663 -2.4406,-0.85663 -1.1314,0 -1.82641,0.59802 -0.695,0.59803 -0.695,1.32536 0,0.90512 0.51721,1.55164 0.50105,0.66268 2.03653,1.40617 l 2.35978,1.14757 q 3.28107,1.60013 3.28107,4.21852 0,2.02036 -1.53547,3.26491 -1.51932,1.22838 -3.41038,1.22838 -1.35768,0 -3.10328,-0.48489 -0.53337,-0.16163 -0.87279,-0.16163 -0.37175,0 -0.58187,0.42024 h -0.53337 v -5.28527 h 0.53337 q 0.45256,2.2628 1.72943,3.41037 1.27687,1.14757 2.86084,1.14757 1.11524,0 1.81024,-0.64652 0.71117,-0.66268 0.71117,-1.58397 0,-1.11524 -0.79198,-1.87489 -0.77582,-0.75966 -3.11944,-1.92339 -2.34362,-1.16373 -3.07095,-2.10118 -0.72733,-0.92128 -0.72733,-2.32746 0,-1.8264 1.24454,-3.05478 1.26071,-1.22839 3.24874,-1.22839 0.8728,0 2.11734,0.37175 0.82431,0.24244 1.09908,0.24244 0.25861,0 0.40408,-0.11314 0.14546,-0.11314 0.33942,-0.50105 z"
         style="font-style:normal;font-variant:normal;font-weight:normal;font-stretch:normal;font-family:'Times New Roman';-inkscape-font-specification:'Times New Roman, ';fill:#ffffff;fill-opacity:1;stroke-width:0.82754087"
         id="path4509"
         inkscape:connector-curvature="0" />
      <path
         d="m 128.19815,139.12518 v 3.32956 q 1.85873,-3.32956 3.81444,-3.32956 0.88896,0 1.47083,0.54954 0.58186,0.53338 0.58186,1.24455 0,0.63035 -0.42023,1.06675 -0.42024,0.4364 -1.0021,0.4364 -0.56571,0 -1.27687,-0.54954 -0.69501,-0.5657 -1.03443,-0.5657 -0.29093,0 -0.63035,0.32325 -0.72733,0.66268 -1.50315,2.182 v 7.09551 q 0,1.22838 0.30709,1.85874 0.21012,0.4364 0.7435,0.72733 0.53337,0.29093 1.53547,0.29093 v 0.58187 h -7.5804 v -0.58187 q 1.1314,0 1.68094,-0.35558 0.40407,-0.25861 0.5657,-0.82431 0.0808,-0.27477 0.0808,-1.5678 v -5.73784 q 0,-2.58606 -0.11314,-3.07095 -0.097,-0.50105 -0.38791,-0.72733 -0.27477,-0.22628 -0.69501,-0.22628 -0.50105,0 -1.1314,0.24244 l -0.16163,-0.58186 4.47713,-1.81025 z"
         style="font-style:normal;font-variant:normal;font-weight:normal;font-stretch:normal;font-family:'Times New Roman';-inkscape-font-specification:'Times New Roman, ';fill:#ffffff;fill-opacity:1;stroke-width:0.82754087"
         id="path4511"
         inkscape:connector-curvature="0" />
      <path
         d="m 147.90074,139.56158 v 8.97042 q 0,2.5699 0.11314,3.15176 0.1293,0.56571 0.38791,0.79199 0.27477,0.22628 0.63035,0.22628 0.50105,0 1.13141,-0.27477 l 0.22628,0.5657 -4.42864,1.82641 h -0.72733 v -3.13561 q -1.90722,2.06886 -2.90933,2.60223 -1.0021,0.53338 -2.11734,0.53338 -1.24454,0 -2.16583,-0.71117 -0.90512,-0.72733 -1.2607,-1.85873 -0.35559,-1.13141 -0.35559,-3.20026 v -6.61063 q 0,-1.05059 -0.22628,-1.45466 -0.22628,-0.40407 -0.67884,-0.61419 -0.4364,-0.22628 -1.60013,-0.21012 v -0.59803 h 5.1883 v 9.90786 q 0,2.06886 0.71116,2.71537 0.72733,0.64652 1.7456,0.64652 0.695,0 1.5678,-0.4364 0.88896,-0.4364 2.10118,-1.66478 v -8.38855 q 0,-1.2607 -0.46873,-1.6971 -0.45256,-0.45256 -1.90722,-0.48489 v -0.59803 z"
         style="font-style:normal;font-variant:normal;font-weight:normal;font-stretch:normal;font-family:'Times New Roman';-inkscape-font-specification:'Times New Roman, ';fill:#ffffff;fill-opacity:1;stroke-width:0.82754087"
         id="path4513"
         inkscape:connector-curvature="0" />
      <path
         d="m 155.78823,142.26079 q 2.60223,-3.13561 4.96201,-3.13561 1.21222,0 2.08502,0.61419 0.8728,0.59803 1.39001,1.98804 0.35558,0.96978 0.35558,2.97398 v 6.31969 q 0,1.40618 0.22628,1.90723 0.1778,0.40407 0.56571,0.63035 0.40407,0.22628 1.47082,0.22628 v 0.58187 h -7.3218 v -0.58187 h 0.3071 q 1.03442,0 1.4385,-0.30709 0.42023,-0.32326 0.58186,-0.93745 0.0647,-0.24245 0.0647,-1.51932 v -6.06109 q 0,-2.02036 -0.53337,-2.92548 -0.51722,-0.92129 -1.76176,-0.92129 -1.92339,0 -3.83061,2.10118 v 7.80668 q 0,1.50315 0.17779,1.85874 0.22628,0.46872 0.61419,0.695 0.40408,0.21012 1.61629,0.21012 v 0.58187 h -7.32179 v -0.58187 h 0.32326 q 1.1314,0 1.51931,-0.5657 0.40407,-0.58187 0.40407,-2.19816 v -5.49538 q 0,-2.66688 -0.1293,-3.24875 -0.11314,-0.58186 -0.37175,-0.79198 -0.24244,-0.21012 -0.66268,-0.21012 -0.45256,0 -1.08291,0.24244 l -0.24245,-0.58186 4.46097,-1.81025 h 0.695 z"
         style="font-style:normal;font-variant:normal;font-weight:normal;font-stretch:normal;font-family:'Times New Roman';-inkscape-font-specification:'Times New Roman, ';fill:#ffffff;fill-opacity:1;stroke-width:0.82754087"
         id="path4515"
         inkscape:connector-curvature="0" />
      <path
         d="m 178.48095,152.70203 q -1.08292,1.1314 -2.11734,1.63245 -1.03443,0.48489 -2.23048,0.48489 -2.42444,0 -4.23469,-2.02037 -1.81024,-2.03652 -1.81024,-5.22062 0,-3.18409 2.0042,-5.81864 2.0042,-2.65072 5.15597,-2.65072 1.95571,0 3.23258,1.24455 v -2.73154 q 0,-2.53757 -0.12931,-3.11944 -0.11314,-0.58186 -0.37174,-0.79198 -0.25861,-0.21012 -0.64652,-0.21012 -0.42023,0 -1.11524,0.25861 l -0.21012,-0.5657 4.41248,-1.81025 h 0.72733 v 17.11652 q 0,2.60223 0.11314,3.18409 0.1293,0.56571 0.38791,0.79199 0.27477,0.22628 0.63035,0.22628 0.4364,0 1.16373,-0.27477 l 0.17779,0.5657 -4.39631,1.82641 h -0.74349 z m 0,-1.13141 v -7.62889 q -0.097,-1.09908 -0.58187,-2.0042 -0.48488,-0.90512 -1.29303,-1.35768 -0.79198,-0.46873 -1.55164,-0.46873 -1.42233,0 -2.53758,1.27687 -1.47082,1.68094 -1.47082,4.91353 0,3.2649 1.42234,5.0105 1.42233,1.72943 3.16793,1.72943 1.47082,0 2.84467,-1.47083 z"
         style="font-style:normal;font-variant:normal;font-weight:normal;font-stretch:normal;font-family:'Times New Roman';-inkscape-font-specification:'Times New Roman, ';fill:#ffffff;fill-opacity:1;stroke-width:0.82754087"
         id="path4517"
         inkscape:connector-curvature="0" />
      <path
         d="m 187.06346,145.13779 q -0.0162,3.29723 1.60013,5.17213 1.61629,1.87489 3.79828,1.87489 1.45466,0 2.52142,-0.79198 1.08291,-0.80814 1.81024,-2.74769 l 0.50105,0.32325 q -0.33942,2.21432 -1.97187,4.04073 -1.63246,1.81025 -4.08922,1.81025 -2.66688,0 -4.5741,-2.06885 -1.89106,-2.08502 -1.89106,-5.59237 0,-3.79828 1.93955,-5.91563 1.95571,-2.1335 4.89736,-2.1335 2.48909,0 4.08921,1.64862 1.60013,1.63245 1.60013,4.38015 z m 0,-0.93745 h 6.85307 q -0.0808,-1.42234 -0.33942,-2.0042 -0.40407,-0.90513 -1.21221,-1.42234 -0.79199,-0.51721 -1.66478,-0.51721 -1.34153,0 -2.40828,1.05059 -1.05059,1.03442 -1.22838,2.89316 z"
         style="font-style:normal;font-variant:normal;font-weight:normal;font-stretch:normal;font-family:'Times New Roman';-inkscape-font-specification:'Times New Roman, ';fill:#ffffff;fill-opacity:1;stroke-width:0.82754087"
         id="path4519"
         inkscape:connector-curvature="0" />
      <path
         d="m 202.35357,151.2312 q 0.75966,0 1.27687,0.53338 0.51721,0.51721 0.51721,1.2607 0,0.7435 -0.53337,1.27687 -0.51722,0.51722 -1.26071,0.51722 -0.74349,0 -1.27687,-0.51722 -0.51721,-0.53337 -0.51721,-1.27687 0,-0.75965 0.51721,-1.27687 0.53338,-0.51721 1.27687,-0.51721 z"
         style="font-style:normal;font-variant:normal;font-weight:normal;font-stretch:normal;font-family:'Times New Roman';-inkscape-font-specification:'Times New Roman, ';fill:#ffffff;fill-opacity:1;stroke-width:0.82754087"
         id="path4521"
         inkscape:connector-curvature="0" />
      <path
         d="m 214.76668,139.12518 q 3.36189,0 5.39841,2.55374 1.72943,2.182 1.72943,5.0105 0,1.98804 -0.95361,4.02457 -0.95361,2.03653 -2.63455,3.07095 -1.66478,1.03443 -3.71747,1.03443 -3.34572,0 -5.3176,-2.66688 -1.66478,-2.24665 -1.66478,-5.04283 0,-2.03653 1.0021,-4.04073 1.01827,-2.02036 2.66688,-2.97397 1.64862,-0.96978 3.49119,-0.96978 z m -0.50105,1.05059 q -0.85663,0 -1.72943,0.51722 -0.85663,0.50105 -1.39001,1.77792 -0.53338,1.27687 -0.53338,3.28107 0,3.23258 1.27687,5.5762 1.29304,2.34362 3.39421,2.34362 1.56781,0 2.58607,-1.29303 1.01826,-1.29303 1.01826,-4.4448 0,-3.94375 -1.6971,-6.20656 -1.14757,-1.55164 -2.92549,-1.55164 z"
         style="font-style:normal;font-variant:normal;font-weight:normal;font-stretch:normal;font-family:'Times New Roman';-inkscape-font-specification:'Times New Roman, ';fill:#ffffff;fill-opacity:1;stroke-width:0.82754087"
         id="path4523"
         inkscape:connector-curvature="0" />
      <path
         d="m 228.40818,139.12518 v 3.32956 q 1.85874,-3.32956 3.81445,-3.32956 0.88896,0 1.47083,0.54954 0.58186,0.53338 0.58186,1.24455 0,0.63035 -0.42024,1.06675 -0.42023,0.4364 -1.0021,0.4364 -0.5657,0 -1.27687,-0.54954 -0.695,-0.5657 -1.03442,-0.5657 -0.29093,0 -0.63036,0.32325 -0.72733,0.66268 -1.50315,2.182 v 7.09551 q 0,1.22838 0.3071,1.85874 0.21012,0.4364 0.74349,0.72733 0.53338,0.29093 1.53548,0.29093 v 0.58187 h -7.5804 v -0.58187 q 1.1314,0 1.68094,-0.35558 0.40407,-0.25861 0.5657,-0.82431 0.0808,-0.27477 0.0808,-1.5678 v -5.73784 q 0,-2.58606 -0.11314,-3.07095 -0.097,-0.50105 -0.38791,-0.72733 -0.27476,-0.22628 -0.695,-0.22628 -0.50105,0 -1.1314,0.24244 l -0.16163,-0.58186 4.47712,-1.81025 z"
         style="font-style:normal;font-variant:normal;font-weight:normal;font-stretch:normal;font-family:'Times New Roman';-inkscape-font-specification:'Times New Roman, ';fill:#ffffff;fill-opacity:1;stroke-width:0.82754087"
         id="path4525"
         inkscape:connector-curvature="0" />
      <path
         d="m 238.50998,148.96839 q -1.35769,-0.66267 -2.08502,-1.84257 -0.72733,-1.19605 -0.72733,-2.63455 0,-2.19816 1.64862,-3.78212 1.66478,-1.58397 4.25084,-1.58397 2.11735,0 3.66898,1.03443 h 3.13561 q 0.695,0 0.80814,0.0485 0.11314,0.0323 0.16163,0.1293 0.097,0.14547 0.097,0.51722 0,0.42023 -0.0808,0.58186 -0.0485,0.0808 -0.1778,0.1293 -0.11314,0.0485 -0.80814,0.0485 h -1.92339 q 0.90513,1.16373 0.90513,2.97398 0,2.06885 -1.58397,3.53967 -1.58396,1.47083 -4.25084,1.47083 -1.09908,0 -2.24665,-0.32326 -0.71117,0.61419 -0.96977,1.08291 -0.24245,0.45257 -0.24245,0.77582 0,0.27477 0.25861,0.53338 0.27477,0.25861 1.05059,0.37175 0.45256,0.0647 2.26281,0.11314 3.32955,0.0808 4.31549,0.22628 1.50315,0.21012 2.39211,1.11524 0.90513,0.90512 0.90513,2.23048 0,1.82641 -1.71327,3.42654 -2.52142,2.35978 -6.57831,2.35978 -3.11944,0 -5.2691,-1.40617 -1.21222,-0.80815 -1.21222,-1.68094 0,-0.38791 0.17779,-0.77582 0.27477,-0.59803 1.1314,-1.66478 0.11314,-0.14547 1.64862,-1.7456 -0.84047,-0.50105 -1.19606,-0.88896 -0.33942,-0.40407 -0.33942,-0.90512 0,-0.5657 0.45256,-1.32536 0.46873,-0.75966 2.13351,-2.14967 z m 2.81234,-9.06739 q -1.19605,0 -2.0042,0.95362 -0.80814,0.95361 -0.80814,2.92548 0,2.55374 1.09908,3.95991 0.84047,1.06676 2.1335,1.06676 1.22838,0 2.02036,-0.92129 0.79199,-0.92129 0.79199,-2.89316 0,-2.5699 -1.11524,-4.02456 -0.82431,-1.06676 -2.11735,-1.06676 z m -2.97397,14.46581 q -0.75966,0.8243 -1.14757,1.53547 -0.38791,0.71117 -0.38791,1.3092 0,0.77582 0.93745,1.35768 1.61629,1.0021 4.67108,1.0021 2.90933,0 4.28317,-1.03442 1.39001,-1.01827 1.39001,-2.182 0,-0.84047 -0.82431,-1.19605 -0.84047,-0.35559 -3.32955,-0.42024 -3.63666,-0.097 -5.59237,-0.37174 z"
         style="font-style:normal;font-variant:normal;font-weight:normal;font-stretch:normal;font-family:'Times New Roman';-inkscape-font-specification:'Times New Roman, ';fill:#ffffff;fill-opacity:1;stroke-width:0.82754087"
         id="path4527"
         inkscape:connector-curvature="0" />
    </g>
  </g>
</svg>
