<?xml version="1.0" encoding="UTF-8" standalone="no"?>
<!-- Created with Inkscape (http://www.inkscape.org/) -->

<svg
   xmlns:dc="http://purl.org/dc/elements/1.1/"
   xmlns:cc="http://creativecommons.org/ns#"
   xmlns:rdf="http://www.w3.org/1999/02/22-rdf-syntax-ns#"
   xmlns:svg="http://www.w3.org/2000/svg"
   xmlns="http://www.w3.org/2000/svg"
   xmlns:sodipodi="http://sodipodi.sourceforge.net/DTD/sodipodi-0.dtd"
   xmlns:inkscape="http://www.inkscape.org/namespaces/inkscape"
   width="37.293545mm"
   height="39.10944mm"
   viewBox="0 0 37.293545 39.10944"
   version="1.1"
   id="svg8"
   inkscape:version="0.92.1 r15371"
   sodipodi:docname="logout.svg">
  <defs
     id="defs2" />
  <sodipodi:namedview
     id="base"
     pagecolor="#ffffff"
     bordercolor="#666666"
     borderopacity="1.0"
     inkscape:pageopacity="0.0"
     inkscape:pageshadow="2"
     inkscape:zoom="2.8"
     inkscape:cx="53.609846"
     inkscape:cy="108.65846"
     inkscape:document-units="mm"
     inkscape:current-layer="layer1"
     showgrid="false"
     inkscape:window-width="1920"
     inkscape:window-height="1017"
     inkscape:window-x="-8"
     inkscape:window-y="-8"
     inkscape:window-maximized="1" />
  <metadata
     id="metadata5">
    <rdf:RDF>
      <cc:Work
         rdf:about="">
        <dc:format>image/svg+xml</dc:format>
        <dc:type
           rdf:resource="http://purl.org/dc/dcmitype/StillImage" />
        <dc:title></dc:title>
      </cc:Work>
    </rdf:RDF>
  </metadata>
  <g
     inkscape:label="Ebene 1"
     inkscape:groupmode="layer"
     id="layer1"
     transform="translate(-90.191226,-141.80758)">
    <path
       style="fill:#ffffff;stroke-width:0.09749928;fill-opacity:1"
       d="m 106.18118,180.81959 c 0.18511,-0.13538 0.19747,-0.28509 0.24375,-2.9537 l 0.0487,-2.81109 4.19248,-0.0487 4.19246,-0.0488 0.025,-6.67313 c 0.0172,-4.57546 -0.007,-6.70555 -0.0776,-6.7762 -0.0588,-0.0591 -0.79768,-0.12794 -1.73129,-0.16135 -0.89573,-0.032 -1.72692,-0.0919 -1.84708,-0.13301 l -0.21848,-0.0748 -0.0253,4.95923 -0.0253,4.95921 -2.26687,0.0262 -2.26685,0.0262 v -11.15328 c 0,-6.1343 -0.0281,-11.29368 -0.0624,-11.46528 -0.11421,-0.57105 -0.44431,-0.76188 -2.95499,-1.70832 -1.31101,-0.4942 -2.40057,-0.94928 -2.42124,-1.01128 -0.0281,-0.0843 1.21452,-0.11274 4.93258,-0.11274 4.44219,0 4.97644,0.0164 5.02934,0.15422 0.0325,0.0848 0.0592,2.28368 0.0592,4.88634 v 4.7321 l 0.21937,-0.0749 c 0.12065,-0.0412 0.95224,-0.10118 1.84798,-0.13325 0.93371,-0.0334 1.67243,-0.10226 1.73131,-0.16135 0.0704,-0.0706 0.0948,-2.17113 0.0776,-6.6787 l -0.025,-6.57563 H 102.52489 90.191226 v 16.62356 16.62363 l 7.66831,2.8963 c 4.217574,1.59296 7.771414,2.92213 7.897444,2.9537 0.13259,0.0332 0.31129,-0.003 0.42413,-0.0853 z m 15.3614,-16.41722 c 0.43761,-0.29873 5.94219,-5.96803 5.94219,-6.12002 0,-0.14929 -5.50093,-5.80655 -5.94588,-6.11485 -0.31035,-0.21505 -0.34938,-0.21347 -0.58657,0.0238 -0.18316,0.18316 -0.195,0.32499 -0.195,2.33619 v 2.14119 l -4.3797,0.0282 -4.37971,0.0282 -0.25151,0.23636 c -0.24118,0.22667 -0.25151,0.28102 -0.25151,1.32363 0,1.04259 0.0104,1.09695 0.25151,1.32361 l 0.25151,0.23637 4.37971,0.0282 4.3797,0.0282 v 2.14119 c 0,2.0112 0.0118,2.15303 0.195,2.33619 0.23716,0.23716 0.27535,0.2387 0.59026,0.0237 z"
       id="path4532"
       inkscape:connector-curvature="0" />
  </g>
</svg>
