<?xml version="1.0" encoding="UTF-8" standalone="no"?>
<!-- Created with Inkscape (http://www.inkscape.org/) -->

<svg
   xmlns:dc="http://purl.org/dc/elements/1.1/"
   xmlns:cc="http://creativecommons.org/ns#"
   xmlns:rdf="http://www.w3.org/1999/02/22-rdf-syntax-ns#"
   xmlns:svg="http://www.w3.org/2000/svg"
   xmlns="http://www.w3.org/2000/svg"
   xmlns:sodipodi="http://sodipodi.sourceforge.net/DTD/sodipodi-0.dtd"
   xmlns:inkscape="http://www.inkscape.org/namespaces/inkscape"
   width="18.792063mm"
   height="18.760117mm"
   viewBox="0 0 18.792063 18.760117"
   version="1.1"
   id="svg8"
   inkscape:version="0.92.1 r15371"
   sodipodi:docname="nopin.svg">
  <defs
     id="defs2" />
  <sodipodi:namedview
     id="base"
     pagecolor="#ffffff"
     bordercolor="#666666"
     borderopacity="1.0"
     inkscape:pageopacity="0.0"
     inkscape:pageshadow="2"
     inkscape:zoom="3.959798"
     inkscape:cx="27.048474"
     inkscape:cy="36.455657"
     inkscape:document-units="mm"
     inkscape:current-layer="layer1"
     showgrid="false"
     inkscape:window-width="1920"
     inkscape:window-height="1017"
     inkscape:window-x="-8"
     inkscape:window-y="-8"
     inkscape:window-maximized="1" />
  <metadata
     id="metadata5">
    <rdf:RDF>
      <cc:Work
         rdf:about="">
        <dc:format>image/svg+xml</dc:format>
        <dc:type
           rdf:resource="http://purl.org/dc/dcmitype/StillImage" />
        <dc:title></dc:title>
      </cc:Work>
    </rdf:RDF>
  </metadata>
  <g
     inkscape:label="Ebene 1"
     inkscape:groupmode="layer"
     id="layer1"
     transform="translate(-100.85772,-160.70077)">
    <path
       style="fill:#000000;stroke-width:0.15014394;fill-opacity:0.40514469"
       d="m 100.89432,179.39079 c 0.13076,-0.16356 1.54347,-1.90583 3.13934,-3.87171 l 2.9016,-3.57431 0.72761,0.71667 0.72761,0.71667 -0.2635,0.24474 c -0.28219,0.2621 -5.47127,4.48868 -6.71968,5.47327 -0.4129,0.32563 -0.64374,0.45824 -0.51298,0.29467 z m 7.45617,-7.39264 c -2.37362,-2.37468 -4.31568,-4.39525 -4.31568,-4.49017 0,-0.27812 1.35097,-1.09325 2.24047,-1.35184 0.94157,-0.27372 2.24677,-0.20533 3.31486,0.1737 l 0.67565,0.23975 1.01346,-1.03983 c 1.12753,-1.15687 1.20973,-1.43871 0.63812,-2.18812 -0.20645,-0.27067 -0.37536,-0.6572 -0.37536,-0.85896 0,-0.4951 1.30183,-1.78191 1.80271,-1.78191 0.53579,0 6.30506,5.77915 6.30506,6.31586 0,0.4979 -1.29459,1.79191 -1.79271,1.79191 -0.19582,0 -0.57748,-0.16891 -0.84815,-0.37536 -0.77019,-0.58745 -1.07333,-0.49883 -2.20918,0.64579 l -1.01333,1.02114 0.25196,0.66798 c 0.15727,0.41697 0.25731,1.14754 0.26621,1.9442 l 0.0142,1.27622 -0.34546,0.75072 c -0.31315,0.68052 -1.00751,1.57651 -1.22174,1.57651 -0.047,0 -2.02754,-1.94292 -4.40115,-4.31759 z"
       id="path4512"
       inkscape:connector-curvature="0" />
  </g>
</svg>
